<?xml version="1.0" encoding="UTF-8"?>
<svg version="1.1" xmlns="http://www.w3.org/2000/svg" width="586" height="586">
<path d="M0 0 C0.98399277 -0.00701431 1.96798553 -0.01402863 2.98179626 -0.02125549 C6.1428591 -0.03867606 9.30373466 -0.04510845 12.46484375 -0.046875 C14.08362427 -0.04788712 14.08362427 -0.04788712 15.73510742 -0.04891968 C31.50418078 -0.0332327 46.85293157 0.34888782 62.40234375 3.203125 C63.84262939 3.45255859 63.84262939 3.45255859 65.31201172 3.70703125 C94.37732157 8.82867175 122.43119495 18.48945768 148.54199219 32.22802734 C150.4173303 33.21098015 152.30309724 34.17114582 154.19140625 35.12890625 C174.29434995 45.43737596 192.50655861 59.28026384 209.40234375 74.203125 C209.92892578 74.66654297 210.45550781 75.12996094 210.99804688 75.60742188 C224.52083458 87.58568705 236.59023612 100.73993465 247.40234375 115.203125 C247.91651855 115.88213867 248.43069336 116.56115234 248.96044922 117.26074219 C261.0004582 133.21040863 270.8488338 150.16139164 279.40234375 168.203125 C279.72267578 168.86505859 280.04300781 169.52699219 280.37304688 170.20898438 C296.5385769 203.79343542 306.42675029 242.43756892 306.60546875 279.80078125 C306.61248306 280.78477402 306.61949738 281.76876678 306.62672424 282.78257751 C306.64414481 285.94364035 306.6505772 289.10451591 306.65234375 292.265625 C306.65335587 293.88440552 306.65335587 293.88440552 306.65438843 295.53588867 C306.63870145 311.30496203 306.25658093 326.65371282 303.40234375 342.203125 C303.15291016 343.64341064 303.15291016 343.64341064 302.8984375 345.11279297 C297.776797 374.17810282 288.11601107 402.2319762 274.37744141 428.34277344 C273.3944886 430.21811155 272.43432293 432.10387849 271.4765625 433.9921875 C261.16809279 454.0951312 247.32520491 472.30733986 232.40234375 489.203125 C231.7072168 489.99299805 231.7072168 489.99299805 230.99804688 490.79882812 C219.0197817 504.32161583 205.8655341 516.39101737 191.40234375 527.203125 C190.72333008 527.7172998 190.04431641 528.23147461 189.34472656 528.76123047 C173.39506012 540.80123945 156.44407711 550.64961505 138.40234375 559.203125 C137.74041016 559.52345703 137.07847656 559.84378906 136.39648438 560.17382812 C102.81203333 576.33935815 64.16789983 586.22753154 26.8046875 586.40625 C25.82069473 586.41326431 24.83670197 586.42027863 23.82289124 586.42750549 C20.6618284 586.44492606 17.50095284 586.45135845 14.33984375 586.453125 C12.72106323 586.45413712 12.72106323 586.45413712 11.06958008 586.45516968 C-4.69949328 586.4394827 -20.04824407 586.05736218 -35.59765625 583.203125 C-36.55784668 583.03683594 -37.51803711 582.87054687 -38.50732422 582.69921875 C-67.57263407 577.57757825 -95.62650745 567.91679232 -121.73730469 554.17822266 C-123.6126428 553.19526985 -125.49840974 552.23510418 -127.38671875 551.27734375 C-147.48966245 540.96887404 -165.70187111 527.12598616 -182.59765625 512.203125 C-183.12423828 511.73970703 -183.65082031 511.27628906 -184.19335938 510.79882812 C-197.71614708 498.82056295 -209.78554862 485.66631535 -220.59765625 471.203125 C-221.11183105 470.52411133 -221.62600586 469.84509766 -222.15576172 469.14550781 C-234.1957707 453.19584137 -244.0441463 436.24485836 -252.59765625 418.203125 C-253.0781543 417.21022461 -253.0781543 417.21022461 -253.56835938 416.19726562 C-269.7338894 382.61281458 -279.62206279 343.96868108 -279.80078125 306.60546875 C-279.80779556 305.62147598 -279.81480988 304.63748322 -279.82203674 303.62367249 C-279.83945731 300.46260965 -279.8458897 297.30173409 -279.84765625 294.140625 C-279.84833099 293.06143799 -279.84900574 291.98225098 -279.84970093 290.87036133 C-279.83401395 275.10128797 -279.45189343 259.75253718 -276.59765625 244.203125 C-276.43136719 243.24293457 -276.26507813 242.28274414 -276.09375 241.29345703 C-270.9721095 212.22814718 -261.31132357 184.1742738 -247.57275391 158.06347656 C-246.5898011 156.18813845 -245.62963543 154.30237151 -244.671875 152.4140625 C-234.36340529 132.3111188 -220.52051741 114.09891014 -205.59765625 97.203125 C-205.13423828 96.67654297 -204.67082031 96.14996094 -204.19335938 95.60742188 C-192.2150942 82.08463417 -179.0608466 70.01523263 -164.59765625 59.203125 C-163.91864258 58.6889502 -163.23962891 58.17477539 -162.54003906 57.64501953 C-146.59037262 45.60501055 -129.63938961 35.75663495 -111.59765625 27.203125 C-110.60475586 26.72262695 -110.60475586 26.72262695 -109.59179688 26.23242188 C-76.00734583 10.06689185 -37.36321233 0.17871846 0 0 Z " fill="#8AC2CC" transform="translate(279.59765625,-0.203125)"/>
<path d="M0 0 C0.98399277 -0.00701431 1.96798553 -0.01402863 2.98179626 -0.02125549 C6.1428591 -0.03867606 9.30373466 -0.04510845 12.46484375 -0.046875 C14.08362427 -0.04788712 14.08362427 -0.04788712 15.73510742 -0.04891968 C31.50418078 -0.0332327 46.85293157 0.34888782 62.40234375 3.203125 C63.84262939 3.45255859 63.84262939 3.45255859 65.31201172 3.70703125 C94.37732157 8.82867175 122.43119495 18.48945768 148.54199219 32.22802734 C150.4173303 33.21098015 152.30309724 34.17114582 154.19140625 35.12890625 C174.29434995 45.43737596 192.50655861 59.28026384 209.40234375 74.203125 C209.92892578 74.66654297 210.45550781 75.12996094 210.99804688 75.60742188 C224.52083458 87.58568705 236.59023612 100.73993465 247.40234375 115.203125 C247.91651855 115.88213867 248.43069336 116.56115234 248.96044922 117.26074219 C261.0004582 133.21040863 270.8488338 150.16139164 279.40234375 168.203125 C279.72267578 168.86505859 280.04300781 169.52699219 280.37304688 170.20898438 C296.5385769 203.79343542 306.42675029 242.43756892 306.60546875 279.80078125 C306.61248306 280.78477402 306.61949738 281.76876678 306.62672424 282.78257751 C306.64414481 285.94364035 306.6505772 289.10451591 306.65234375 292.265625 C306.65335587 293.88440552 306.65335587 293.88440552 306.65438843 295.53588867 C306.63870145 311.30496203 306.25658093 326.65371282 303.40234375 342.203125 C303.15291016 343.64341064 303.15291016 343.64341064 302.8984375 345.11279297 C297.776797 374.17810282 288.11601107 402.2319762 274.37744141 428.34277344 C273.3944886 430.21811155 272.43432293 432.10387849 271.4765625 433.9921875 C261.16809279 454.0951312 247.32520491 472.30733986 232.40234375 489.203125 C231.7072168 489.99299805 231.7072168 489.99299805 230.99804688 490.79882812 C219.0197817 504.32161583 205.8655341 516.39101737 191.40234375 527.203125 C190.72333008 527.7172998 190.04431641 528.23147461 189.34472656 528.76123047 C173.39506012 540.80123945 156.44407711 550.64961505 138.40234375 559.203125 C137.74041016 559.52345703 137.07847656 559.84378906 136.39648438 560.17382812 C102.81203333 576.33935815 64.16789983 586.22753154 26.8046875 586.40625 C25.82069473 586.41326431 24.83670197 586.42027863 23.82289124 586.42750549 C20.6618284 586.44492606 17.50095284 586.45135845 14.33984375 586.453125 C12.72106323 586.45413712 12.72106323 586.45413712 11.06958008 586.45516968 C-4.69949328 586.4394827 -20.04824407 586.05736218 -35.59765625 583.203125 C-36.55784668 583.03683594 -37.51803711 582.87054687 -38.50732422 582.69921875 C-67.57263407 577.57757825 -95.62650745 567.91679232 -121.73730469 554.17822266 C-123.6126428 553.19526985 -125.49840974 552.23510418 -127.38671875 551.27734375 C-147.48966245 540.96887404 -165.70187111 527.12598616 -182.59765625 512.203125 C-183.12423828 511.73970703 -183.65082031 511.27628906 -184.19335938 510.79882812 C-197.71614708 498.82056295 -209.78554862 485.66631535 -220.59765625 471.203125 C-221.11183105 470.52411133 -221.62600586 469.84509766 -222.15576172 469.14550781 C-234.1957707 453.19584137 -244.0441463 436.24485836 -252.59765625 418.203125 C-253.0781543 417.21022461 -253.0781543 417.21022461 -253.56835938 416.19726562 C-269.7338894 382.61281458 -279.62206279 343.96868108 -279.80078125 306.60546875 C-279.80779556 305.62147598 -279.81480988 304.63748322 -279.82203674 303.62367249 C-279.83945731 300.46260965 -279.8458897 297.30173409 -279.84765625 294.140625 C-279.84833099 293.06143799 -279.84900574 291.98225098 -279.84970093 290.87036133 C-279.83401395 275.10128797 -279.45189343 259.75253718 -276.59765625 244.203125 C-276.43136719 243.24293457 -276.26507813 242.28274414 -276.09375 241.29345703 C-270.9721095 212.22814718 -261.31132357 184.1742738 -247.57275391 158.06347656 C-246.5898011 156.18813845 -245.62963543 154.30237151 -244.671875 152.4140625 C-234.36340529 132.3111188 -220.52051741 114.09891014 -205.59765625 97.203125 C-205.13423828 96.67654297 -204.67082031 96.14996094 -204.19335938 95.60742188 C-192.2150942 82.08463417 -179.0608466 70.01523263 -164.59765625 59.203125 C-163.91864258 58.6889502 -163.23962891 58.17477539 -162.54003906 57.64501953 C-146.59037262 45.60501055 -129.63938961 35.75663495 -111.59765625 27.203125 C-110.60475586 26.72262695 -110.60475586 26.72262695 -109.59179688 26.23242188 C-76.00734583 10.06689185 -37.36321233 0.17871846 0 0 Z M-135.59765625 83.203125 C-136.16242676 83.61771973 -136.72719727 84.03231445 -137.30908203 84.45947266 C-141.14064221 87.29022707 -144.88935507 90.21307278 -148.59765625 93.203125 C-149.12472168 93.62577637 -149.65178711 94.04842773 -150.19482422 94.48388672 C-165.74827395 107.07030348 -180.67486117 121.33560159 -192.41943359 137.58056641 C-193.60782046 139.21712238 -194.82783094 140.82573788 -196.0546875 142.43359375 C-235.77430158 195.27053607 -250.96997178 264.35229246 -242.62890625 329.33203125 C-237.19036517 367.36405113 -223.37503032 406.2368151 -200.5625 437.4765625 C-198.92516842 439.74864489 -197.34875106 442.04190905 -195.7890625 444.3671875 C-195.29390137 445.10195313 -194.79874023 445.83671875 -194.28857422 446.59375 C-193.29719073 448.06714099 -192.31042153 449.54364873 -191.32861328 451.0234375 C-190.13552905 452.78532263 -188.87232806 454.49933482 -187.59765625 456.203125 C-186.93765625 456.203125 -186.27765625 456.203125 -185.59765625 456.203125 C-185.35402344 456.76515625 -185.11039063 457.3271875 -184.859375 457.90625 C-183.35584689 460.64332285 -181.53065877 462.66108441 -179.41015625 464.953125 C-176.53451763 468.08683375 -173.68624872 471.23087481 -170.91015625 474.453125 C-167.93316732 477.8593542 -164.91172547 481.12026991 -161.59765625 484.203125 C-160.93765625 484.203125 -160.27765625 484.203125 -159.59765625 484.203125 C-159.59765625 484.863125 -159.59765625 485.523125 -159.59765625 486.203125 C-158.02824824 487.64125173 -156.3889159 489.0034255 -154.72265625 490.328125 C-153.70558594 491.13894531 -152.68851562 491.94976562 -151.640625 492.78515625 C-150.63644531 493.58308594 -149.63226563 494.38101562 -148.59765625 495.203125 C-147.44716797 496.16798828 -147.44716797 496.16798828 -146.2734375 497.15234375 C-95.61618578 539.32251664 -26.69862172 558.03702609 38.40234375 552.453125 C70.89389449 549.27182982 102.6252922 540.53911779 131.52587891 525.19433594 C133.40622367 524.2010755 135.29868186 523.23517813 137.1953125 522.2734375 C154.45084688 513.43164818 170.29134834 502.12809454 184.4765625 488.91796875 C186.40234375 487.203125 186.40234375 487.203125 188.40234375 486.203125 C188.40234375 485.543125 188.40234375 484.883125 188.40234375 484.203125 C188.98250244 483.9460376 189.56266113 483.6889502 190.16040039 483.42407227 C194.35720257 481.13852204 197.4872249 477.50022338 200.83984375 474.140625 C201.640271 473.33858643 202.44069824 472.53654785 203.26538086 471.71020508 C210.75084002 464.07205781 217.21248674 455.90573862 223.40234375 447.203125 C224.10520508 446.22811035 224.10520508 446.22811035 224.82226562 445.23339844 C229.95247633 439.1723706 229.95247633 439.1723706 232.40234375 432.203125 C208.26184816 439.2787875 188.17883002 456.19369444 169.94140625 472.90625 C165.72493436 476.72053534 161.38608853 480.39091685 157.05859375 484.078125 C154.60748257 486.16708057 152.17137825 488.2717469 149.74609375 490.390625 C134.926855 503.30739391 122.08110059 513.27449338 101.68261719 512.41308594 C97.09741455 511.99089383 92.66658198 510.81158505 88.2512207 509.53833008 C80.32694228 507.3379441 74.70537451 509.22507659 67.58984375 512.578125 C47.30421669 521.78250331 25.66749881 523.04912979 4.40234375 516.203125 C3.6851416 515.97238281 2.96793945 515.74164062 2.22900391 515.50390625 C-10.28965504 511.32825826 -21.3970849 505.10169364 -32.59765625 498.203125 C-33.32049805 497.77161133 -34.04333984 497.34009766 -34.78808594 496.89550781 C-38.53525912 494.62989594 -41.58744387 492.42138661 -44.59765625 489.203125 C-46.22714572 487.87038809 -47.87377082 486.55838254 -49.53515625 485.265625 C-59.109187 477.66853275 -59.109187 477.66853275 -60.59765625 473.203125 C-60.72922152 469.51929731 -60.76747763 466.71258915 -59.59765625 463.203125 C-53.57599652 460.26573001 -47.86193532 461.3760436 -41.59765625 463.203125 C-41.59765625 463.863125 -41.59765625 464.523125 -41.59765625 465.203125 C-40.52515625 465.80125 -39.45265625 466.399375 -38.34765625 467.015625 C-36.19311984 468.23870527 -34.2670118 469.45334242 -32.28515625 470.953125 C-30.67981005 472.40153418 -30.67981005 472.40153418 -28.59765625 472.203125 C-28.59765625 472.863125 -28.59765625 473.523125 -28.59765625 474.203125 C-28.09878906 474.47125 -27.59992188 474.739375 -27.0859375 475.015625 C-22.43957858 477.55151927 -17.94090154 480.23921514 -13.47265625 483.078125 C1.68629011 492.40941602 19.6764718 501.25331877 37.90234375 497.203125 C38.75828125 497.0175 39.61421875 496.831875 40.49609375 496.640625 C41.12515625 496.49625 41.75421875 496.351875 42.40234375 496.203125 C42.40234375 495.543125 42.40234375 494.883125 42.40234375 494.203125 C41.49097656 493.89761719 40.57960938 493.59210938 39.640625 493.27734375 C17.52640191 485.57975901 -16.41244085 470.5735558 -27.59765625 448.203125 C-27.66716166 446.66288504 -27.68217982 445.11977512 -27.66015625 443.578125 C-27.65113281 442.76085937 -27.64210937 441.94359375 -27.6328125 441.1015625 C-27.61541016 440.16183594 -27.61541016 440.16183594 -27.59765625 439.203125 C-26.60765625 438.873125 -25.61765625 438.543125 -24.59765625 438.203125 C-24.59765625 437.543125 -24.59765625 436.883125 -24.59765625 436.203125 C-15.70985447 434.26503607 -9.98146466 437.82300574 -2.77783203 442.43994141 C-0.3737442 444.01209288 2.01504048 445.60562445 4.40234375 447.203125 C28.04792605 462.80668557 54.40914556 476.7207542 83.77734375 471.453125 C88.85728845 470.26089308 93.63297139 468.29353076 98.40234375 466.203125 C98.40234375 465.543125 98.40234375 464.883125 98.40234375 464.203125 C99.26666016 464.04457031 99.26666016 464.04457031 100.1484375 463.8828125 C102.73853876 463.1017421 104.33137544 461.98063802 106.46484375 460.328125 C107.13644531 459.81507813 107.80804688 459.30203125 108.5 458.7734375 C110.25846805 457.32188893 111.89848374 455.91780651 113.40234375 454.203125 C113.40234375 453.543125 113.40234375 452.883125 113.40234375 452.203125 C114.06234375 452.203125 114.72234375 452.203125 115.40234375 452.203125 C115.93859375 451.5225 116.47484375 450.841875 117.02734375 450.140625 C118.92792012 447.78991213 120.56618566 446.12257109 122.83984375 444.203125 C126.72923944 440.88805129 130.31436477 437.33585726 133.90234375 433.703125 C138.57660265 428.98707834 143.31985323 424.48065386 148.40234375 420.203125 C149.31886719 419.39746094 150.23539062 418.59179688 151.1796875 417.76171875 C171.98966496 399.5772838 195.3704903 384.88876771 222.40234375 378.203125 C223.29050781 377.97625 224.17867188 377.749375 225.09375 377.515625 C236.22913046 375.06754136 248.17591367 375.61387952 259.40234375 377.203125 C262.50792636 370.71738084 264.17827206 363.97840231 265.90234375 357.015625 C266.21059082 355.77635254 266.51883789 354.53708008 266.83642578 353.26025391 C269.33252552 342.97696062 271.20069189 332.71288481 272.40234375 322.203125 C272.49515625 321.47383789 272.58796875 320.74455078 272.68359375 319.99316406 C273.60594158 312.08403145 273.64583976 304.15574499 273.65234375 296.203125 C273.65301849 295.45735199 273.65369324 294.71157898 273.65438843 293.94320679 C273.55306419 222.88082834 243.92868775 158.16474102 194.40234375 108.015625 C189.04099107 102.6696515 183.36254695 97.87503583 177.40234375 93.203125 C176.07207286 92.12213132 174.7427123 91.0400168 173.4140625 89.95703125 C162.6507357 81.27529692 151.4406178 73.98675448 139.40234375 67.203125 C138.34611816 66.59476807 138.34611816 66.59476807 137.26855469 65.97412109 C100.30554694 44.75461665 57.29882679 34.9470801 14.90234375 35.015625 C13.77567795 35.01702988 13.77567795 35.01702988 12.62625122 35.01846313 C-40.48512548 35.1616509 -92.72012749 51.53880928 -135.59765625 83.203125 Z " fill="#DDE5DA" transform="translate(279.59765625,-0.203125)"/>
<path d="M0 0 C9.24308145 6.6982673 16.47122784 15.89750753 18.625 27.3125 C19.79623948 38.82968823 17.7358776 49.39964217 10.7578125 58.9375 C4.34729299 66.45917623 -3.1269437 72.14235178 -13 74 C-26.49014402 74.86348246 -37.26275958 73.87844239 -48 64.84765625 C-55.59708097 57.82925918 -60.56584268 49.78281842 -61.23828125 39.27734375 C-61.55110883 27.12336101 -60.05467588 17.67420493 -51.9765625 8.06640625 C-38.51684549 -6.00511608 -17.19525686 -10.87085663 0 0 Z " fill="#DCE5DA" transform="translate(273,273)"/>
<path d="M0 0 C1.29873047 -0.00064453 2.59746094 -0.00128906 3.93554688 -0.00195312 C4.95273804 0.01363647 4.95273804 0.01363647 5.99047852 0.02954102 C8.02770635 0.05815985 10.06227272 0.05022156 12.09960938 0.03710938 C25.42473959 0.12248478 36.31406082 2.86307169 46.30078125 12.1796875 C48.5664015 14.74611043 49.49609375 16.00681852 49.49609375 19.49609375 C50.15609375 19.49609375 50.81609375 19.49609375 51.49609375 19.49609375 C56.22961084 29.28010453 57.22986152 39.93764549 54.80078125 50.52734375 C50.83724309 61.3188258 42.96483166 69.53373717 32.78125 74.63671875 C24.7804036 77.64558406 17.29387076 77.86196489 8.80859375 77.87109375 C7.59880859 77.89558594 6.38902344 77.92007813 5.14257812 77.9453125 C3.97662109 77.94917969 2.81066406 77.95304687 1.609375 77.95703125 C0.55532471 77.96524902 -0.49872559 77.9734668 -1.5847168 77.98193359 C-5.34337723 77.35638084 -6.83612902 76.20228 -9.50390625 73.49609375 C-10.12536621 70.42248535 -10.12536621 70.42248535 -10.11914062 66.77148438 C-10.12468964 66.10432907 -10.13023865 65.43717377 -10.13595581 64.74980164 C-10.14774316 62.54991256 -10.12349095 60.35208793 -10.09765625 58.15234375 C-10.09594479 56.62064711 -10.09601119 55.08894755 -10.09777832 53.55725098 C-10.09612562 50.3492424 -10.0774383 47.1419331 -10.04589844 43.93408203 C-10.00622022 39.8247409 -10.00185329 35.71631549 -10.00936127 31.60681915 C-10.01243275 28.44459666 -10.00030426 25.28257955 -9.98323059 22.1204071 C-9.97620581 20.60537505 -9.97307543 19.09031971 -9.97392273 17.57527161 C-9.97212224 15.4566553 -9.95072158 13.33913036 -9.92382812 11.22070312 C-9.91540894 10.0158728 -9.90698975 8.81104248 -9.89831543 7.56970215 C-9.05430406 0.99236937 -6.22950641 -0.00980353 0 0 Z " fill="#DCE5DA" transform="translate(412.50390625,268.50390625)"/>
<path d="M0 0 C0.66107254 -0.00287018 1.32214508 -0.00574036 2.00325012 -0.00869751 C3.40101987 -0.01073473 4.79881834 -0.00522866 6.1965332 0.00732422 C8.30812572 0.02325712 10.41776696 0.00753307 12.52929688 -0.01171875 C21.76401845 -0.02770062 30.46759829 0.23585046 37.58203125 6.7734375 C38.22011719 7.33804687 38.85820312 7.90265625 39.515625 8.484375 C43.60009773 13.28387534 43.56185079 18.40628859 43.47265625 24.44921875 C42.99951087 28.70189447 41.63828072 30.95119559 39.14453125 34.3984375 C38.48453125 35.3884375 37.82453125 36.3784375 37.14453125 37.3984375 C37.96953125 38.0171875 38.79453125 38.6359375 39.64453125 39.2734375 C40.46953125 39.9746875 41.29453125 40.6759375 42.14453125 41.3984375 C42.14453125 42.0584375 42.14453125 42.7184375 42.14453125 43.3984375 C43.13453125 43.7284375 44.12453125 44.0584375 45.14453125 44.3984375 C48.09886113 50.63535615 49.5685447 56.26563401 47.265625 62.94921875 C44.74193352 68.57130372 41.90644947 72.87035638 36.14453125 75.3984375 C30.55027163 77.01532143 25.61704046 77.68724971 19.8125 77.62890625 C19.05407303 77.62844803 18.29564606 77.62798981 17.51423645 77.6275177 C15.92687393 77.62452042 14.33951369 77.61671092 12.75219727 77.60424805 C10.32102085 77.5858542 7.89022353 77.58373971 5.45898438 77.58398438 C3.91015295 77.5790731 2.3613241 77.5732465 0.8125 77.56640625 C-0.27500298 77.56473701 -0.27500298 77.56473701 -1.38447571 77.56303406 C-4.47678145 77.53379278 -6.89894481 77.38394548 -9.85546875 76.3984375 C-10.99800547 72.97082735 -11.00348091 70.29547869 -11.0324707 66.6796875 C-11.0390419 66.00131836 -11.0456131 65.32294922 -11.05238342 64.62402344 C-11.07207444 62.38216031 -11.08376651 60.14036387 -11.09375 57.8984375 C-11.09782553 57.13265381 -11.10190105 56.36687012 -11.10610008 55.57788086 C-11.12693796 51.52848583 -11.14125231 47.47912451 -11.15063477 43.4296875 C-11.16172442 39.24288506 -11.19615947 35.05661042 -11.23580647 30.86999512 C-11.26190759 27.65298452 -11.27032051 24.43610132 -11.27391624 21.21899414 C-11.27879524 19.67517512 -11.29044652 18.13136227 -11.30895424 16.58764648 C-11.33322032 14.43039533 -11.33240535 12.27453241 -11.32543945 10.1171875 C-11.33130569 8.88935547 -11.33717194 7.66152344 -11.34321594 6.39648438 C-10.85546875 3.3984375 -10.85546875 3.3984375 -9.02340698 1.5027771 C-5.95193126 -0.06182111 -3.43644772 0.00952741 0 0 Z " fill="#DDE6DA" transform="translate(145.85546875,268.6015625)"/>
<path d="M0 0 C3.45183275 1.175092 4.17058743 1.86528061 5.9375 5 C6.29826355 8.17645264 6.29826355 8.17645264 6.27807617 11.97167969 C6.27873329 13.01131111 6.27873329 13.01131111 6.27940369 14.07194519 C6.27731897 16.35554488 6.25400401 18.63840408 6.23046875 20.921875 C6.22487164 22.50799153 6.22060208 24.09411325 6.21760559 25.68023682 C6.2061658 29.84949123 6.17670626 34.01843079 6.14349365 38.18756104 C6.112774 42.44400778 6.09909621 46.70050554 6.08398438 50.95703125 C6.05183555 59.30483179 6.00064989 67.6523767 5.9375 76 C1.1875 77.125 1.1875 77.125 -1.0625 76 C-1.0625 75.34 -1.0625 74.68 -1.0625 74 C-1.60390625 73.77699219 -2.1453125 73.55398438 -2.703125 73.32421875 C-5.81225631 71.57919306 -8.2410332 69.24686543 -10.8125 66.8125 C-11.88738262 65.81051284 -12.96290352 64.80920995 -14.0390625 63.80859375 C-14.55887695 63.32374512 -15.07869141 62.83889648 -15.61425781 62.33935547 C-18.0485765 60.08806209 -20.55453576 57.92225034 -23.0625 55.75390625 C-25.47053932 53.64216864 -27.82479617 51.47479592 -30.1875 49.3125 C-32.86380013 46.88620647 -35.35280396 44.80828984 -38.375 42.8125 C-41.60005352 40.6374639 -43.57981307 37.97922431 -46.0625 35 C-48.03809963 33.63077253 -50.03550787 32.29192905 -52.0625 31 C-52.03893433 32.97577026 -52.03893433 32.97577026 -52.01489258 34.99145508 C-51.96064614 39.87225239 -51.9261691 44.753023 -51.89770508 49.6340332 C-51.8826064 51.74768554 -51.86212574 53.86130648 -51.83618164 55.97485352 C-51.79984603 59.01065815 -51.78278456 62.04604906 -51.76953125 65.08203125 C-51.75404739 66.02899368 -51.73856354 66.97595612 -51.72261047 67.95161438 C-51.72227058 69.27264412 -51.72227058 69.27264412 -51.72192383 70.62036133 C-51.71526199 71.39535477 -51.70860016 72.17034821 -51.70173645 72.96882629 C-52.16173153 75.55869414 -52.98218286 76.43114516 -55.0625 78 C-58 78.4375 -58 78.4375 -61.0625 78 C-64.01761093 75.79966859 -64.96343935 74.62063445 -65.55024719 70.94416809 C-65.54438095 69.74805405 -65.53851471 68.55194 -65.5324707 67.31958008 C-65.5357563 66.32624916 -65.5357563 66.32624916 -65.53910828 65.31285095 C-65.54141379 63.13123077 -65.51520363 60.95097064 -65.48828125 58.76953125 C-65.48335698 57.25307137 -65.48005834 55.73660542 -65.47831726 54.22013855 C-65.47068416 51.04670718 -65.45014066 47.87372797 -65.41918945 44.70043945 C-65.37951367 40.62464548 -65.36156414 36.54914494 -65.35188007 32.47317982 C-65.3419291 28.59275692 -65.3220287 24.7124063 -65.30078125 20.83203125 C-65.2973855 20.08780222 -65.29398975 19.34357319 -65.2904911 18.57679176 C-65.27896589 16.48185134 -65.26045558 14.38710104 -65.23950195 12.29223633 C-65.22965775 11.09850906 -65.21981354 9.9047818 -65.20967102 8.67488098 C-65.0625 6 -65.0625 6 -64.0625 5 C-57.99348911 5.18685378 -54.93337576 7.26605742 -50.8125 11.4375 C-49.6748899 12.53688351 -48.53686245 13.6358353 -47.3984375 14.734375 C-46.55684082 15.56098633 -46.55684082 15.56098633 -45.69824219 16.40429688 C-39.04249667 22.89712564 -32.02207684 28.93447274 -24.7734375 34.75 C-21.11303137 37.7880316 -17.67821961 41.04745309 -14.25390625 44.34765625 C-11.98761655 46.40136504 -11.98761655 46.40136504 -8.0625 46 C-8.0531543 44.74864258 -8.04380859 43.49728516 -8.03417969 42.20800781 C-7.99429518 37.5634405 -7.92854059 32.91953665 -7.85498047 28.27539062 C-7.82676193 26.26571173 -7.80555179 24.25592166 -7.79150391 22.24609375 C-7.77008665 19.35619151 -7.72344297 16.4676271 -7.671875 13.578125 C-7.67064636 12.68007141 -7.66941772 11.78201782 -7.66815186 10.85675049 C-7.52248625 4.64728895 -7.52248625 4.64728895 -5.21582031 1.40136719 C-3.0625 0 -3.0625 0 0 0 Z " fill="#DDE6DA" transform="translate(383.0625,268)"/>
<path d="M0 0 C3.06415661 1.34666755 5.88597046 3.02414324 8.75 4.75 C26.28398955 14.87627453 40.67513423 18.72476136 60.75 15.5 C75.50614754 13.17008197 75.50614754 13.17008197 79.8125 15.5625 C82 18 82 18 83.25 21.25 C82.93243134 26.01352986 81.49023393 27.79914061 78.20703125 31.140625 C65.79452414 41.59788763 48.07559048 41.01704261 32.70703125 39.72265625 C18.03626268 37.68774119 4.75163632 30.75641017 -7 22 C-7.55236328 21.59692627 -8.10472656 21.19385254 -8.67382812 20.77856445 C-12.33492228 17.95391916 -14.32019656 15.29866366 -16 11 C-16 6.81688816 -15.32253281 5.37215325 -12.5625 2.1875 C-8.30515526 -1.44681868 -5.3076086 -1.30047899 0 0 Z " fill="#DDE5DA" transform="translate(306,420)"/>
<path d="M0 0 C7.11544877 6.39749358 10.38956913 12.5061222 11.4375 21.9375 C11.14765489 28.83857407 7.92815174 36.20874137 3 41 C-5.08666897 46.8645058 -12.00269517 47.99051638 -22 47 C-29.36930056 44.82178133 -34.76150588 40.35774118 -39 34 C-42.34150955 27.41789897 -42.08760848 18.62781057 -40.41796875 11.5234375 C-37.59976729 5.06345058 -31.79425757 -0.14208055 -25.54296875 -3.203125 C-16.80755636 -6.22956709 -7.57530369 -5.51069186 0 0 Z " fill="#8BC2CC" transform="translate(267,286)"/>
<path d="M0 0 C21.61111111 0 21.61111111 0 30.875 7.25 C35.42363946 13.1364746 37.7331639 18.94779263 37.3828125 26.4453125 C36.5125355 32.25307945 34.70615193 37.9136081 30.1875 41.875 C19.36710918 49.08859388 14.56758183 49 0 49 C0 32.83 0 16.66 0 0 Z " fill="#8AC1CC" transform="translate(417,283)"/>
<path d="M0 0 C4.04238572 -0.1081173 8.0818685 -0.18738513 12.125 -0.25 C13.26710937 -0.28351563 14.40921875 -0.31703125 15.5859375 -0.3515625 C26.38764656 -0.47716377 26.38764656 -0.47716377 31 4 C32.125 7.4375 32.125 7.4375 32 11 C30.23358828 13.80189446 28.96950178 15.51524911 26 17 C24.0406396 17.08510205 22.07837206 17.10717656 20.1171875 17.09765625 C18.95058594 17.09443359 17.78398437 17.09121094 16.58203125 17.08789062 C15.35871094 17.07951172 14.13539063 17.07113281 12.875 17.0625 C11.64394531 17.05798828 10.41289062 17.05347656 9.14453125 17.04882812 C6.09633361 17.03701341 3.04816084 17.0190775 0 17 C0 11.39 0 5.78 0 0 Z " fill="#8CC1CB" transform="translate(148,315)"/>
<path d="M0 0 C19.17180617 -0.44933921 19.17180617 -0.44933921 25 3 C26.84739612 5.8080421 27.07392054 7.24231443 26.75 10.5625 C26.02233869 12.92739925 25.33901436 14.91708877 24 17 C20.99984088 18.00005304 19.02576244 18.11575585 15.89453125 18.09765625 C14.91162109 18.09443359 13.92871094 18.09121094 12.91601562 18.08789062 C11.89185547 18.07951172 10.86769531 18.07113281 9.8125 18.0625 C8.77673828 18.05798828 7.74097656 18.05347656 6.67382812 18.04882812 C4.1158608 18.03704026 1.55792314 18.01910482 -1 18 C-0.505 9.09 -0.505 9.09 0 0 Z " fill="#8BC2CC" transform="translate(149,283)"/>
<path d="M0 0 C-0.69746338 0.22026855 -1.39492676 0.44053711 -2.11352539 0.66748047 C-26.24607861 8.34772525 -48.6336866 17.88343409 -70.91308594 29.94360352 C-73 31 -73 31 -76 32 C-76 32.66 -76 33.32 -76 34 C-77.13824219 34.53238281 -78.27648437 35.06476562 -79.44921875 35.61328125 C-84.25401817 38.0193794 -88.49474939 41.00590169 -92.8125 44.1875 C-93.99489258 45.05133301 -93.99489258 45.05133301 -95.20117188 45.93261719 C-104.092542 52.47167651 -112.50305758 59.43524798 -120.65625 66.87890625 C-122.79924312 68.81831503 -124.98344638 70.69329299 -127.1875 72.5625 C-130.50841877 75.45083416 -133.34938889 78.57961945 -136.19140625 81.93359375 C-139.28159768 85.46428763 -142.64476851 88.72320249 -146 92 C-146 88.37839097 -145.40645103 87.99478015 -142.9921875 85.4453125 C-142.34233887 84.75453613 -141.69249023 84.06375977 -141.02294922 83.35205078 C-140.31412598 82.61712402 -139.60530273 81.88219727 -138.875 81.125 C-138.14941895 80.36558105 -137.42383789 79.60616211 -136.67626953 78.82373047 C-125.8490298 67.58559876 -114.48370471 57.35880486 -102 48 C-101.31953613 47.484375 -100.63907227 46.96875 -99.93798828 46.4375 C-83.98977155 34.39947204 -67.03957422 24.55248631 -49 16 C-48.33806641 15.67966797 -47.67613281 15.35933594 -46.99414062 15.02929688 C-37.11725517 10.27515967 -27.00382962 6.45949064 -16.625 2.9375 C-15.44123779 2.53088135 -14.25747559 2.1242627 -13.0378418 1.70532227 C-11.36782104 1.1531604 -11.36782104 1.1531604 -9.6640625 0.58984375 C-8.17060303 0.09278931 -8.17060303 0.09278931 -6.64697266 -0.41430664 C-3.9532964 -1.01033407 -2.55961114 -0.9320447 0 0 Z " fill="#95C2C7" transform="translate(217,11)"/>
<path d="M0 0 C2.4375 2 2.4375 2 4 4 C3.67 4.66 3.34 5.32 3 6 C2.34 5.01 1.68 4.02 1 3 C-1.91666667 2 -1.91666667 2 -5 2 C-7.05053318 3.51528945 -7.8853947 4.43800818 -8.39872742 6.95524597 C-8.40983047 7.69470963 -8.42093353 8.43417328 -8.43237305 9.19604492 C-8.45216721 10.03668991 -8.47196136 10.8773349 -8.49235535 11.74345398 C-8.49874527 12.64666885 -8.50513519 13.54988373 -8.51171875 14.48046875 C-8.53864555 15.87245232 -8.53864555 15.87245232 -8.56611633 17.29255676 C-8.62031291 20.25749157 -8.654145 23.22226455 -8.6875 26.1875 C-8.72066482 28.19728819 -8.75515369 30.207055 -8.79101562 32.21679688 C-8.87604479 37.14441465 -8.94281138 42.07198364 -9 47 C-11.475 47.495 -11.475 47.495 -14 48 C-14.33 47.34 -14.66 46.68 -15 46 C-13.02 45.505 -13.02 45.505 -11 45 C-10.98541748 43.70787598 -10.97083496 42.41575195 -10.95581055 41.08447266 C-10.89794978 36.30212367 -10.82071683 31.52025161 -10.73754883 26.73828125 C-10.70424177 24.66641973 -10.67622803 22.59446621 -10.65356445 20.52246094 C-10.62012437 17.54842827 -10.56781495 14.57524321 -10.51171875 11.6015625 C-10.50532883 10.67131256 -10.4989389 9.74106262 -10.49235535 8.78262329 C-10.47256119 7.92188202 -10.45276703 7.06114075 -10.43237305 6.17431641 C-10.41571846 5.03514267 -10.41571846 5.03514267 -10.39872742 3.87295532 C-9.32671739 -1.16263238 -4.01882107 -0.4230338 0 0 Z " fill="#9FC4C7" transform="translate(385,267)"/>
<path d="M0 0 C0.33 0.66 0.66 1.32 1 2 C0.25 4.0625 0.25 4.0625 -1 6 C-4.00015912 7.00005304 -5.97423756 7.11575585 -9.10546875 7.09765625 C-10.08837891 7.09443359 -11.07128906 7.09121094 -12.08398438 7.08789062 C-13.10814453 7.07951172 -14.13230469 7.07113281 -15.1875 7.0625 C-16.22326172 7.05798828 -17.25902344 7.05347656 -18.32617188 7.04882812 C-20.88417266 7.0370401 -23.44205733 7.02058515 -26 7 C-26 5.35 -26 3.7 -26 2 C-25.67 3.32 -25.34 4.64 -25 6 C-21.95546425 5.96684169 -18.91808193 5.89950894 -15.875 5.8125 C-14.59109375 5.80379883 -14.59109375 5.80379883 -13.28125 5.79492188 C-7.13552943 5.58218539 -4.30447616 4.42443697 0 0 Z " fill="#98C1C6" transform="translate(174,294)"/>
<path d="M0 0 C0.99 0.33 1.98 0.66 3 1 C0.86410317 3.13589683 -1.27398629 5.266961 -3.4375 7.375 C-6.13677667 10.14011268 -8.56188431 13.00460072 -11 16 C-11.66 15.67 -12.32 15.34 -13 15 C-12.34 13.68 -11.68 12.36 -11 11 C-10.34 11 -9.68 11 -9 11 C-8.67 10.01 -8.34 9.02 -8 8 C-7.34 8 -6.68 8 -6 8 C-6 7.34 -6 6.68 -6 6 C-5.34 6 -4.68 6 -4 6 C-3.566875 5.071875 -3.566875 5.071875 -3.125 4.125 C-2 2 -2 2 0 0 Z " fill="#D2E1D8" transform="translate(399,446)"/>
<path d="M0 0 C0.33 0 0.66 0 1 0 C1.16330282 4.89908469 1.17570335 7.6485933 -1 12 C-0.93621724 14.00915697 -0.87228111 16.01831138 -0.8046875 18.02734375 C-1.1141582 21.15299782 -2.84695866 22.84695866 -5 25 C-4.38580826 16.40131562 -2.19092979 8.30515248 0 0 Z " fill="#A4CBCD" transform="translate(10,213)"/>
<path d="M0 0 C0.66 0.33 1.32 0.66 2 1 C1.83773926 1.57959473 1.67547852 2.15918945 1.50830078 2.75634766 C0.71326931 6.26563644 0.85655057 9.79580999 0.875 13.375 C0.87113281 14.1175 0.86726562 14.86 0.86328125 15.625 C0.87076332 19.8598522 1.16581979 23.82909897 2 28 C1.01 27.67 0.02 27.34 -1 27 C-1.02898816 23.06251542 -1.04679464 19.12505821 -1.0625 15.1875 C-1.07087891 14.06794922 -1.07925781 12.94839844 -1.08789062 11.79492188 C-1.09111328 10.72177734 -1.09433594 9.64863281 -1.09765625 8.54296875 C-1.10289307 7.55321045 -1.10812988 6.56345215 -1.11352539 5.54370117 C-1 3 -1 3 0 0 Z " fill="#95C0C6" transform="translate(212,294)"/>
<path d="M0 0 C-0.639375 0.309375 -1.27875 0.61875 -1.9375 0.9375 C-3.93610821 1.8345163 -3.93610821 1.8345163 -5 3 C-7.85528607 3.400383 -10.69736487 3.7518227 -13.5625 4.0625 C-14.36880859 4.15337891 -15.17511719 4.24425781 -16.00585938 4.33789062 C-18.00347377 4.56247449 -20.0016856 4.78173236 -22 5 C-18.78660465 2.85773643 -16.43016168 2.22972551 -12.6875 1.375 C-11.02267578 0.98441406 -11.02267578 0.98441406 -9.32421875 0.5859375 C-6.13489257 0.0237766 -3.22976591 -0.10749599 0 0 Z " fill="#9EC8CE" transform="translate(239,5)"/>
<path d="M0 0 C1.24153433 3.724603 0.47452539 4.47752269 -1 8 C-1.37593066 9.9924325 -1.71979545 11.9918674 -2 14 C-2.99 14 -3.98 14 -5 14 C-5.33 14.66 -5.66 15.32 -6 16 C-5.37183502 12.05050296 -4.1354471 8.80107972 -2.4375 5.1875 C-1.98246094 4.21167969 -1.52742188 3.23585937 -1.05859375 2.23046875 C-0.70925781 1.49441406 -0.35992187 0.75835937 0 0 Z " fill="#A9CCCE" transform="translate(27,168)"/>
<path d="M0 0 C5.92863717 1.16651426 11.38798394 2.75519358 17 5 C13.28233332 6.23922223 11.56110463 5.57018942 7.8125 4.5625 C6.72582031 4.27503906 5.63914062 3.98757812 4.51953125 3.69140625 C3.68808594 3.46324219 2.85664063 3.23507813 2 3 C2 2.34 2 1.68 2 1 C1.34 0.67 0.68 0.34 0 0 Z " fill="#A9CCCD" transform="translate(380,13)"/>
<path d="M0 0 C0 0.66 0 1.32 0 2 C-2.64738916 3.4606285 -3.89448334 4 -7 4 C-7.33 4.99 -7.66 5.98 -8 7 C-11 7 -11 7 -14 6 C-12.2335343 4.9923048 -10.46166177 3.99408286 -8.6875 3 C-7.20830078 2.1646875 -7.20830078 2.1646875 -5.69921875 1.3125 C-3 0 -3 0 0 0 Z " fill="#97C1C6" transform="translate(179,63)"/>
<path d="M0 0 C-2.51066469 3.05906926 -4.90059933 3.75191278 -8.6875 4.6875 C-9.68136719 4.93886719 -10.67523438 5.19023438 -11.69921875 5.44921875 C-12.45847656 5.63097656 -13.21773438 5.81273437 -14 6 C-11.86197902 3.67490219 -9.81401863 2.17832764 -7 0.75 C-6.319375 0.39421875 -5.63875 0.0384375 -4.9375 -0.328125 C-3 -1 -3 -1 0 0 Z " fill="#96C2C7" transform="translate(355,511)"/>
<path d="M0 0 C0.33 0 0.66 0 1 0 C1.19392201 5.52677733 0.7479503 9.75614911 -1 15 C-1.99 14.34 -2.98 13.68 -4 13 C-3.525625 11.96875 -3.05125 10.9375 -2.5625 9.875 C-1.15477612 6.61465838 -0.43164502 3.53948917 0 0 Z " fill="#97C2C7" transform="translate(194,323)"/>
<path d="M0 0 C3.99500618 1.3697164 6.80009492 3.25722422 10 6 C7.69 5.67 5.38 5.34 3 5 C3 4.34 3 3.68 3 3 C2.01 2.67 1.02 2.34 0 2 C0 1.34 0 0.68 0 0 Z " fill="#B9D4D1" transform="translate(441,40)"/>
<path d="M0 0 C0.66 0.66 1.32 1.32 2 2 C1.66306057 5.36939433 0.11180592 7.42910583 -2 10 C-1.85950482 8.52031676 -1.71245174 7.04125484 -1.5625 5.5625 C-1.48128906 4.73878906 -1.40007813 3.91507813 -1.31640625 3.06640625 C-1 1 -1 1 0 0 Z " fill="#AFD1D2" transform="translate(7,228)"/>
<path d="M0 0 C4.12751449 0.60698743 7.3321148 2.03810791 11 4 C11 4.33 11 4.66 11 5 C9.02 5 7.04 5 5 5 C4.67 4.34 4.34 3.68 4 3 C1.98330173 1.86649466 1.98330173 1.86649466 0 1 C0 0.67 0 0.34 0 0 Z " fill="#B0D1CF" transform="translate(407,23)"/>
<path d="M0 0 C0 0.99 0 1.98 0 3 C-0.66 3 -1.32 3 -2 3 C-2.268125 3.639375 -2.53625 4.27875 -2.8125 4.9375 C-4 7 -4 7 -7 8 C-5.50902342 4.2047869 -3.24299151 2.38957269 0 0 Z " fill="#D1E0D7" transform="translate(92,81)"/>
</svg>
